<svg width="25" height="24" viewBox="0 0 25 24" fill="none" xmlns="http://www.w3.org/2000/svg">
<path d="M11.4269 2.63301C11.7469 1.78901 12.9579 1.78901 13.2789 2.63301L15.3489 8.36701C15.4212 8.5538 15.5483 8.71429 15.7136 8.8273C15.879 8.94032 16.0747 9.00054 16.2749 9.00001H21.3619C22.3019 9.00001 22.7119 10.17 21.9729 10.743L18.3529 14C18.1908 14.1247 18.0723 14.2975 18.0144 14.4937C17.9566 14.6898 17.9624 14.8993 18.0309 15.092L19.3529 20.695C19.6749 21.595 18.6329 22.368 17.8449 21.814L12.9279 18.694C12.7596 18.5757 12.5588 18.5122 12.3529 18.5122C12.1471 18.5122 11.9463 18.5757 11.7779 18.694L6.86094 21.814C6.07394 22.368 5.03094 21.594 5.35294 20.695L6.67494 15.092C6.74352 14.8993 6.7493 14.6898 6.69145 14.4937C6.6336 14.2975 6.5151 14.1247 6.35294 14L2.73294 10.743C1.99294 10.17 2.40494 9.00001 3.34294 9.00001H8.42994C8.63024 9.00068 8.82601 8.94051 8.99136 8.82748C9.15671 8.71445 9.28385 8.55388 9.35594 8.36701L11.4259 2.63301H11.4269Z" fill="#FFD057" stroke="#FFD057" stroke-linecap="round" stroke-linejoin="round"/>
</svg>
